# xmcd
#
# Track frame offsets: 
#        150
#        23434
#        43688
#        62755
#
# Disc length: 1044 seconds
#
# Revision: 0
# Processed by: cddbd v1.5.1PL2 Copyright (c) Steve Scherf et al.
# Submitted via: ExactAudioCopy v0.95b3
#
DISCID=28041204
DTITLE=Nickel Creek - Live Session (iTunes Exclusive) - EP
DYEAR=1900
DGENRE=Bluegrass
TTITLE0=Jealous of the Moon
TTITLE1=When In Rome
TTITLE2=Smoothie Song
TTITLE3=Scotch and Chocolate
EXTD=
EXTT0=
EXTT1=
EXTT2=
EXTT3=
PLAYORDER=
